# xmcd
#
# Track frame offsets: 
#        150
#        19276
#        36997
#        52974
#        68338
#        87817
#        108977
#        128828
#        150534
#        171592
#        190187
#
# Disc length: 3075 seconds
#
# Revision: 0
# Processed by: cddbd v1.5.1PL0 Copyright (c) Steve Scherf et al.
# Submitted via: ExactAudioCopy v0.95a5
#
DISCID=890c010b
DTITLE=Small Victories - Holding On Hopefully
DYEAR=2003
DGENRE=Boobytrap
TTITLE0=A Poor Man's Opera
TTITLE1=Come What May
TTITLE2=Holding On Hopefully
TTITLE3=Thawed
TTITLE4=The Weight
TTITLE5=Kids' Chorus
TTITLE6=Battle Waltz
TTITLE7=Marzipan Fortune
TTITLE8=Go Back To Bed America
TTITLE9=Live By The Sword...
TTITLE10=Catchphrase Kid
EXTD=
EXTT0=
EXTT1=
EXTT2=
EXTT3=
EXTT4=
EXTT5=
EXTT6=
EXTT7=
EXTT8=
EXTT9=
EXTT10=
PLAYORDER=
